<?xml version="1.0"?>
<svg xmlns:rdf="http://www.w3.org/1999/02/22-rdf-syntax-ns#" xmlns="http://www.w3.org/2000/svg" xmlns:cc="http://creativecommons.org/ns#" xmlns:dc="http://purl.org/dc/elements/1.1/" xmlns:svg="http://www.w3.org/2000/svg" id="svg2" viewBox="0 0 442.67 745.8" version="1.0">
  <g id="layer1" stroke="#000" transform="translate(-177.98 -115.31)">
    <path id="path1295" stroke-width="5" fill-rule="evenodd" fill="#f68400" d="m247.81 581.2l-5 79.25 65.01 1.96 1.25-29.07 27.5 45.7 81.26-12.72-35-94.9"/>
    <path id="path1297" stroke-width="5" fill-rule="evenodd" fill="#f4dccc" d="m379.86 260.61c-5.64 90.22-51.73 100.29-63.22 101.18-35.83-3.23-82.66-19.29-93.33-95.91 0-63.03 37.97-114.18 84.75-114.18s71.8 45.89 71.8 108.91z"/>
    <path id="path1299" stroke-width="5.5178" fill-rule="evenodd" fill="#e68400" d="m284.08 358.76l-87.06 62.89 63.59 22.34"/>
    <path id="path1293" stroke-width="5.0212" fill-rule="evenodd" fill="#e68400" d="m287.71 358.62l-84.04 226.76c172.91 15.83 217.21-9.4 221.2-15.44l-85.37-210.84-5.99 4.03"/>
    <path id="path2094" stroke-width="5" fill-rule="evenodd" fill="#fae3cf" d="m218.65 248.61c-3.99-4-13.97 25.96 8 43.93"/>
    <path id="path2096" stroke-width="5" fill-rule="evenodd" fill="#fae3cf" d="m382.12 238.14s32.74 18.32-1.38 47.94"/>
    <path id="path2066" stroke-width="5.113" fill="none" d="m228.82 434.87l-45.11 53.24 50.75 26.63"/>
    <path id="path1301" stroke-width="5.1595" fill-rule="evenodd" fill="#e68400" d="m340.26 357.11l97.75 3.36c8.51 28.16 2.74 64.12 2.74 64.12l-74.24-4.92"/>
    <path id="path2064" stroke-width="5" fill="none" d="m439.16 380.19l123.73-112.85 11.78 6.27"/>
    <path id="path2070" stroke-width="5" fill="none" d="m368.54 672.53l48 146.85"/>
    <path id="path2072" stroke-width="5" fill="none" d="m269.7 658.41v138.38"/>
    <path id="path2074" stroke-width="4.973" fill-rule="evenodd" fill="#e6c600" d="m282.42 794.72l-82.96 63.9s-59.27-67.89 31.6-87.86c27.66 3.99 27.66 0 51.36 23.96z"/>
    <path id="path2076" stroke-width="4.973" fill-rule="evenodd" fill="#e6c600" d="m416.66 790.73l3.95 51.92s173.83 31.95 90.87-23.96c-82.97-55.92-94.82-27.96-94.82-27.96z"/>
    <path id="path2078" stroke-width="5" fill="none" d="m557.75 276.46s9.88-29.65 15.53-15.53 11.3 28.24 0 24c-11.29-4.23 1.41 4.24-15.53-8.47z"/>
    <path id="path2080" stroke-width="5" fill="none" d="m571.87 283.76l11.3 296.04-1.42-4.2"/>
    <path id="path2082" stroke-width=".04" fill="none" d="m552.1 615.34s-5.65-22.59 22.59-39.53c25.42 1.41 25.42-1.42 42.37 19.77 5.64 32.47-11.3 36.71-31.07 43.77-25.42-1.41-33.89-24.01-33.89-24.01z"/>
    <path id="path2086" stroke-width="5" fill-rule="evenodd" fill="#e6f100" d="m552.1 615.34s-5.65-22.59 22.59-39.53c25.42 1.41 25.42-1.42 42.37 19.77 5.64 32.47-11.3 36.71-31.07 43.77-25.42-1.41-33.89-24.01-33.89-24.01z"/>
    <path id="path2090" stroke-width="5" fill-rule="evenodd" fill="#e6f100" d="m552 618.56s-5.06-19.63 20.23-34.35c22.76 1.23 22.76-1.22 37.93 17.18 5.06 28.21-10.11 31.89-27.81 38.02-22.76-1.22-30.35-20.85-30.35-20.85z"/>
    <path id="path2092" stroke-width="5" fill="none" d="m568.41 615.56s-1.87-6.78 7.47-11.87c8.4 0.43 8.4-0.42 14 5.93 1.87 9.75-3.73 11.02-10.27 13.14-8.4-0.43-11.2-7.2-11.2-7.2z"/>
    <path id="path2098" stroke-width="5" fill="none" d="m212.67 210.67l21.96 37.94"/>
    <path id="path2100" stroke-width="5" fill="none" d="m216.66 188.71l23.97 47.92"/>
    <path id="path2102" stroke-width="5" fill="none" d="m229.64 166.74c0.01 6.99 3.61 32.75 19.97 51.92"/>
    <path id="path2104" stroke-width="5" fill="none" d="m261.59 133.79c2 0-16.08 42.94-7.98 71.89"/>
    <path id="path2106" stroke-width="5" fill="none" d="m302.31 117.81s-37.43 48.56-37.5 78.89"/>
    <path id="path2110" stroke-width="5" fill="none" d="m383.4 140.78c2 0-62.31 18.42-74.88 45.93"/>
    <path id="path2112" stroke-width="5" fill="none" d="m380.41 182.72c-32.83-9.63-53.92 19.96-53.92 19.96"/>
    <path id="path2114" stroke-width="5" fill="none" d="m382.4 220.66l-31.95-15.98"/>
    <path id="path2116" stroke-width="5" fill="none" d="m355.9 128.8c1.81 0.15-58.41 20.48-72.79 56.9"/>
    <path id="path2120" stroke-width="5" fill="none" d="m275.57 251.61z"/>
    <path id="path3654" stroke-width="1px" fill-rule="evenodd" fill="#e6f100" d="m401.38 519.19l-191.71 43.93-7.98 19.97 55.91 7.99 151.76-47.93-7.98-23.96z"/>
    <path id="path3656" stroke-width="5.1351" fill-rule="evenodd" fill="#e6f100" d="m403.37 519.33c-69.94-1.87-191.7 46.34-191.7 46.34l-7.99 21.06 87.87 4.21c42.05-35.78 119.81-46.33 119.81-46.33l-7.99-25.28z"/>
    <path id="path3658" stroke-width="5.1351" fill-rule="evenodd" fill="#e6f100" d="m378.15 451.43l-143.46 50.56-6.15 21.06 106.1-29.49 53.86-12.64-10.35-29.49z"/>
    <path id="path3660" stroke-width="5" fill-rule="evenodd" fill="#edef00" d="m392.63 361.7l-1.84 60.41 24.29-0.06 1.84-60.41-24.29 0.06z"/>
    <path id="path3662" stroke-width="2.7958" fill-rule="evenodd" fill="#edef00" d="m231.17 407.95l26.64 19.46 6.27-12.64-26.65-19.46-6.26 12.64z"/>
    <path id="path3664" stroke-width="4" fill-rule="evenodd" fill="#fae3c5" d="m297.94 362.12l-5.65 36.71c28.24 28.25 45.18 0 45.18 0-2.82-36.71-8.47-35.53-8.47-35.53"/>
    <path id="path2118" stroke-width="5" fill="none" d="m268.31 303.37c19.35 39.16 46.92 43.99 75.84 0.17"/>
    <path id="path2890" stroke-width="5" fill="none" d="m269.18 247.49s12.9-7.18 9.11-0.72c-3.8 6.46-8.35 5.02-9.11 3.59-0.76-1.44 0-2.87 0-2.87z"/>
    <path id="path2894" stroke-width="5" fill="none" d="m337.92 248.26s-12.8-5.92-9.04-0.6c3.77 5.33 8.28 4.15 9.04 2.96 0.75-1.18 0-2.36 0-2.36z"/>
    <path id="path4424" stroke-width="4" fill="none" d="m273.57 784.78l-83.87 59.91"/>
    <path id="path4426" stroke-width="4" fill-rule="evenodd" d="m421.34 824.72l107.84 7.98"/>
  </g>
  <metadata>
    <rdf:RDF>
      <cc:Work>
        <dc:format>image/svg+xml</dc:format>
        <dc:type rdf:resource="http://purl.org/dc/dcmitype/StillImage"/>
        <cc:license rdf:resource="http://creativecommons.org/licenses/publicdomain/"/>
        <dc:publisher>
          <cc:Agent rdf:about="http://openclipart.org/">
            <dc:title>Openclipart</dc:title>
          </cc:Agent>
        </dc:publisher>
        <dc:title>Menininho</dc:title>
        <dc:date>2008-02-19T14:44:47</dc:date>
        <dc:description>Boy with a toy</dc:description>
        <dc:source>http://openclipart.org/detail/14527/menininho-by-newtonguarinof-14527</dc:source>
        <dc:creator>
          <cc:Agent>
            <dc:title>newtonguarinof</dc:title>
          </cc:Agent>
        </dc:creator>
        <dc:subject>
          <rdf:Bag>
            <rdf:li>boy</rdf:li>
            <rdf:li>cartoon</rdf:li>
            <rdf:li>clip art</rdf:li>
            <rdf:li>clipart</rdf:li>
            <rdf:li>image</rdf:li>
            <rdf:li>media</rdf:li>
            <rdf:li>menininho</rdf:li>
            <rdf:li>png</rdf:li>
            <rdf:li>public domain</rdf:li>
            <rdf:li>svg</rdf:li>
            <rdf:li>toy</rdf:li>
          </rdf:Bag>
        </dc:subject>
      </cc:Work>
      <cc:License rdf:about="http://creativecommons.org/licenses/publicdomain/">
        <cc:permits rdf:resource="http://creativecommons.org/ns#Reproduction"/>
        <cc:permits rdf:resource="http://creativecommons.org/ns#Distribution"/>
        <cc:permits rdf:resource="http://creativecommons.org/ns#DerivativeWorks"/>
      </cc:License>
    </rdf:RDF>
  </metadata>
</svg>
